<svg width="341" height="667" viewBox="0 0 341 667" fill="none" xmlns="http://www.w3.org/2000/svg">
<path fill-rule="evenodd" clip-rule="evenodd" d="M1.5116 400C13.9444 400 24.0232 409.85 24.0232 422C24.0232 434.15 13.9444 444 1.5116 444C1.00361 444 0.499557 443.984 -4.16294e-05 443.951L-3.26665e-05 649C-3.22319e-05 658.941 8.05885 667 18 667L323 667C332.941 667 341 658.941 341 649L341 442.17C340.669 442.184 340.335 442.191 340 442.191C327.85 442.191 318 432.97 318 421.596C318 410.221 327.85 401 340 401C340.335 401 340.669 401.007 341 401.021L341 18C341 8.05888 332.941 -1.45533e-05 323 -1.41188e-05L17.9999 -7.86806e-07C8.05881 -3.52266e-07 -6.06829e-05 8.05884 -6.02484e-05 18L-4.35485e-05 400.049C0.499555 400.016 1.00361 400 1.5116 400ZM27.9926 423.152L30.0103 423.152L30.0103 421.152L27.9926 421.152L27.9926 423.152ZM34.0456 423.152L38.0809 423.152L38.0809 421.152L34.0456 421.152L34.0456 423.152ZM42.1162 423.152L46.1514 423.152L46.1514 421.152L42.1162 421.152L42.1162 423.152ZM50.1867 423.152L54.222 423.152L54.222 421.152L50.1867 421.152L50.1867 423.152ZM58.2573 423.152L62.2926 423.152L62.2926 421.152L58.2573 421.152L58.2573 423.152ZM66.3279 423.152L70.3632 423.152L70.3632 421.152L66.3279 421.152L66.3279 423.152ZM74.3985 423.152L78.4337 423.152L78.4337 421.152L74.3984 421.152L74.3985 423.152ZM82.469 423.152L86.5043 423.152L86.5043 421.152L82.469 421.152L82.469 423.152ZM90.5396 423.152L94.5749 423.152L94.5749 421.152L90.5396 421.152L90.5396 423.152ZM98.6102 423.152L102.645 423.152L102.645 421.152L98.6102 421.152L98.6102 423.152ZM106.681 423.152L110.716 423.152L110.716 421.152L106.681 421.152L106.681 423.152ZM114.751 423.152L118.787 423.152L118.787 421.152L114.751 421.152L114.751 423.152ZM122.822 423.152L126.857 423.152L126.857 421.152L122.822 421.152L122.822 423.152ZM130.892 423.152L134.928 423.152L134.928 421.152L130.892 421.152L130.892 423.152ZM138.963 423.152L142.998 423.152L142.998 421.152L138.963 421.152L138.963 423.152ZM147.034 423.152L151.069 423.152L151.069 421.152L147.034 421.152L147.034 423.152ZM155.104 423.152L159.139 423.152L159.139 421.152L155.104 421.152L155.104 423.152ZM163.175 423.152L167.21 423.152L167.21 421.152L163.175 421.152L163.175 423.152ZM171.245 423.152L175.281 423.152L175.281 421.152L171.245 421.152L171.245 423.152ZM179.316 423.152L183.351 423.152L183.351 421.152L179.316 421.152L179.316 423.152ZM187.387 423.152L191.422 423.152L191.422 421.152L187.387 421.152L187.387 423.152ZM195.457 423.152L199.492 423.152L199.492 421.152L195.457 421.152L195.457 423.152ZM203.528 423.152L207.563 423.152L207.563 421.152L203.528 421.152L203.528 423.152ZM211.598 423.152L215.634 423.152L215.634 421.152L211.598 421.152L211.598 423.152ZM219.669 423.152L223.704 423.152L223.704 421.152L219.669 421.152L219.669 423.152ZM227.739 423.152L231.775 423.152L231.775 421.152L227.739 421.152L227.739 423.152ZM235.81 423.152L239.845 423.152L239.845 421.152L235.81 421.152L235.81 423.152ZM243.881 423.152L247.916 423.152L247.916 421.152L243.881 421.152L243.881 423.152ZM251.951 423.152L255.987 423.152L255.987 421.152L251.951 421.152L251.951 423.152ZM260.022 423.152L264.057 423.152L264.057 421.152L260.022 421.152L260.022 423.152ZM268.092 423.152L272.128 423.152L272.128 421.152L268.092 421.152L268.092 423.152ZM276.163 423.152L280.198 423.152L280.198 421.152L276.163 421.152L276.163 423.152ZM284.234 423.152L288.269 423.152L288.269 421.152L284.234 421.152L284.234 423.152ZM292.304 423.152L296.339 423.152L296.339 421.152L292.304 421.152L292.304 423.152ZM300.375 423.152L304.41 423.152L304.41 421.152L300.375 421.152L300.375 423.152ZM308.445 423.152L310.463 423.152L310.463 421.152L308.445 421.152L308.445 423.152Z" fill="#24262E"/>
</svg>
